{
  "asset": { "version": "2.0" },
  "buffers": [ { "uri": "indirect_probe.bin", "byteLength": 1632 } ],
  "bufferViews": [
    { "buffer": 0, "byteOffset": 0, "byteLength": 384, "target": 34962 },
    { "buffer": 0, "byteOffset": 384, "byteLength": 384, "target": 34962 },
    { "buffer": 0, "byteOffset": 768, "byteLength": 512, "target": 34962 },
    { "buffer": 0, "byteOffset": 1280, "byteLength": 256, "target": 34962 },
    { "buffer": 0, "byteOffset": 1536, "byteLength": 96, "target": 34963 }
  ],
  "accessors": [
    { "bufferView": 0, "componentType": 5126, "count": 32, "type": "VEC3", "min": [-1.7, -0.85, -0.24748738], "max": [1.7, 0.85, 0.24748738] },
    { "bufferView": 1, "componentType": 5126, "count": 32, "type": "VEC3" },
    { "bufferView": 2, "componentType": 5126, "count": 32, "type": "VEC4" },
    { "bufferView": 3, "componentType": 5126, "count": 32, "type": "VEC2" },
    { "bufferView": 4, "byteOffset": 0, "componentType": 5123, "count": 6, "type": "SCALAR" },
    { "bufferView": 4, "byteOffset": 12, "componentType": 5123, "count": 6, "type": "SCALAR" },
    { "bufferView": 4, "byteOffset": 24, "componentType": 5123, "count": 6, "type": "SCALAR" },
    { "bufferView": 4, "byteOffset": 36, "componentType": 5123, "count": 6, "type": "SCALAR" },
    { "bufferView": 4, "byteOffset": 48, "componentType": 5123, "count": 6, "type": "SCALAR" },
    { "bufferView": 4, "byteOffset": 60, "componentType": 5123, "count": 6, "type": "SCALAR" },
    { "bufferView": 4, "byteOffset": 72, "componentType": 5123, "count": 6, "type": "SCALAR" },
    { "bufferView": 4, "byteOffset": 84, "componentType": 5123, "count": 6, "type": "SCALAR" }
  ],
  "materials": [
    { "pbrMetallicRoughness": { "baseColorFactor": [0.9, 0.6, 0.3, 1.0], "metallicFactor": 1, "roughnessFactor": 0 } },
    { "pbrMetallicRoughness": { "baseColorFactor": [0.9, 0.6, 0.3, 1.0], "metallicFactor": 1, "roughnessFactor": 0.2 } },
    { "pbrMetallicRoughness": { "baseColorFactor": [0.9, 0.6, 0.3, 1.0], "metallicFactor": 1, "roughnessFactor": 0.4 } },
    { "pbrMetallicRoughness": { "baseColorFactor": [0.9, 0.6, 0.3, 1.0], "metallicFactor": 1, "roughnessFactor": 0.6 } },
    { "pbrMetallicRoughness": { "baseColorFactor": [0.9, 0.6, 0.3, 1.0], "metallicFactor": 1, "roughnessFactor": 0.8 } },
    { "pbrMetallicRoughness": { "baseColorFactor": [0.9, 0.6, 0.3, 1.0], "metallicFactor": 1, "roughnessFactor": 1 } },
    { "pbrMetallicRoughness": { "baseColorFactor": [0.8, 0.2, 0.2, 1.0], "metallicFactor": 0, "roughnessFactor": 0.2 } },
    { "pbrMetallicRoughness": { "baseColorFactor": [0.2, 0.4, 0.8, 1.0], "metallicFactor": 0, "roughnessFactor": 0.8 } }
  ],
  "meshes": [ { "name": "遠方環境の検収の板", "primitives": [
    { "attributes": { "POSITION": 0, "NORMAL": 1, "TANGENT": 2, "TEXCOORD_0": 3 }, "indices": 4, "material": 0 },
    { "attributes": { "POSITION": 0, "NORMAL": 1, "TANGENT": 2, "TEXCOORD_0": 3 }, "indices": 5, "material": 1 },
    { "attributes": { "POSITION": 0, "NORMAL": 1, "TANGENT": 2, "TEXCOORD_0": 3 }, "indices": 6, "material": 2 },
    { "attributes": { "POSITION": 0, "NORMAL": 1, "TANGENT": 2, "TEXCOORD_0": 3 }, "indices": 7, "material": 3 },
    { "attributes": { "POSITION": 0, "NORMAL": 1, "TANGENT": 2, "TEXCOORD_0": 3 }, "indices": 8, "material": 4 },
    { "attributes": { "POSITION": 0, "NORMAL": 1, "TANGENT": 2, "TEXCOORD_0": 3 }, "indices": 9, "material": 5 },
    { "attributes": { "POSITION": 0, "NORMAL": 1, "TANGENT": 2, "TEXCOORD_0": 3 }, "indices": 10, "material": 6 },
    { "attributes": { "POSITION": 0, "NORMAL": 1, "TANGENT": 2, "TEXCOORD_0": 3 }, "indices": 11, "material": 7 }
  ] } ],
  "nodes": [ { "mesh": 0 } ],
  "scenes": [ { "nodes": [0] } ],
  "scene": 0
}
