{
  "asset": { "version": "2.0" },
  "buffers": [ { "uri": "multi_material.bin", "byteLength": 408 } ],
  "bufferViews": [
    { "buffer": 0, "byteOffset": 0, "byteLength": 96, "target": 34962 },
    { "buffer": 0, "byteOffset": 96, "byteLength": 96, "target": 34962 },
    { "buffer": 0, "byteOffset": 192, "byteLength": 128, "target": 34962 },
    { "buffer": 0, "byteOffset": 320, "byteLength": 64, "target": 34962 },
    { "buffer": 0, "byteOffset": 384, "byteLength": 24, "target": 34963 }
  ],
  "accessors": [
    { "bufferView": 0, "componentType": 5126, "count": 8, "type": "VEC3", "min": [-1.2, -0.6, 0.0], "max": [1.2, 0.6, 0.0] },
    { "bufferView": 1, "componentType": 5126, "count": 8, "type": "VEC3" },
    { "bufferView": 2, "componentType": 5126, "count": 8, "type": "VEC4" },
    { "bufferView": 3, "componentType": 5126, "count": 8, "type": "VEC2" },
    { "bufferView": 4, "byteOffset": 0, "componentType": 5123, "count": 12, "type": "SCALAR" }
  ],
  "materials": [
    { "pbrMetallicRoughness": { "baseColorFactor": [0.9, 0.12, 0.1, 1.0], "metallicFactor": 0.0, "roughnessFactor": 0.8 } }
  ],
  "meshes": [ { "name": "材質境界の板", "primitives": [
    { "attributes": { "POSITION": 0, "NORMAL": 1, "TANGENT": 2, "TEXCOORD_0": 3 }, "indices": 4, "material": 0 }
  ] } ],
  "nodes": [ { "mesh": 0 } ],
  "scenes": [ { "nodes": [0] } ],
  "scene": 0
}
