{
  "asset": { "version": "2.0" },
  "buffers": [
    { "uri": "archetype.bin", "byteLength": 1224 }
  ],
  "bufferViews": [
    { "buffer": 0, "byteOffset": 0, "byteLength": 288, "target": 34962 },
    { "buffer": 0, "byteOffset": 288, "byteLength": 288, "target": 34962 },
    { "buffer": 0, "byteOffset": 576, "byteLength": 384, "target": 34962 },
    { "buffer": 0, "byteOffset": 960, "byteLength": 192, "target": 34962 },
    { "buffer": 0, "byteOffset": 1152, "byteLength": 72, "target": 34963 }
  ],
  "accessors": [
    { "bufferView": 0, "componentType": 5126, "count": 24, "type": "VEC3", "min": [-0.8, 0.0, -0.8], "max": [0.8, 3, 0.8] },
    { "bufferView": 1, "componentType": 5126, "count": 24, "type": "VEC3" },
    { "bufferView": 2, "componentType": 5126, "count": 24, "type": "VEC4" },
    { "bufferView": 3, "componentType": 5126, "count": 24, "type": "VEC2" },
    { "bufferView": 4, "componentType": 5123, "count": 36, "type": "SCALAR" }
  ],
  "meshes": [
    {
      "primitives": [
        {
          "attributes": { "POSITION": 0, "NORMAL": 1, "TANGENT": 2, "TEXCOORD_0": 3 },
          "indices": 4
        }
      ]
    }
  ],
  "nodes": [ { "mesh": 0 } ],
  "scenes": [ { "nodes": [0] } ],
  "scene": 0
}
