{
  "asset": { "version": "2.0" },
  "buffers": [
    { "uri": "archetype_lod_subdivided.bin", "byteLength": 16704 }
  ],
  "bufferViews": [
    { "buffer": 0, "byteOffset": 0, "byteLength": 1800, "target": 34962 },
    { "buffer": 0, "byteOffset": 1800, "byteLength": 1800, "target": 34962 },
    { "buffer": 0, "byteOffset": 3600, "byteLength": 2400, "target": 34962 },
    { "buffer": 0, "byteOffset": 6000, "byteLength": 1200, "target": 34962 },
    { "buffer": 0, "byteOffset": 7200, "byteLength": 1152, "target": 34963 },
    { "buffer": 0, "byteOffset": 8352, "byteLength": 1800, "target": 34962 },
    { "buffer": 0, "byteOffset": 10152, "byteLength": 1800, "target": 34962 },
    { "buffer": 0, "byteOffset": 11952, "byteLength": 2400, "target": 34962 },
    { "buffer": 0, "byteOffset": 14352, "byteLength": 1200, "target": 34962 },
    { "buffer": 0, "byteOffset": 15552, "byteLength": 1152, "target": 34963 }
  ],
  "accessors": [
    { "bufferView": 0, "componentType": 5126, "count": 150, "type": "VEC3", "min": [-0.8, 0.0, -0.8], "max": [0.8, 3, 0.8] },
    { "bufferView": 1, "componentType": 5126, "count": 150, "type": "VEC3" },
    { "bufferView": 2, "componentType": 5126, "count": 150, "type": "VEC4" },
    { "bufferView": 3, "componentType": 5126, "count": 150, "type": "VEC2" },
    { "bufferView": 4, "componentType": 5123, "count": 576, "type": "SCALAR" },
    { "bufferView": 5, "componentType": 5126, "count": 150, "type": "VEC3", "min": [-0.3, 0.0, -0.3], "max": [0.3, 1, 0.3] },
    { "bufferView": 6, "componentType": 5126, "count": 150, "type": "VEC3" },
    { "bufferView": 7, "componentType": 5126, "count": 150, "type": "VEC4" },
    { "bufferView": 8, "componentType": 5126, "count": 150, "type": "VEC2" },
    { "bufferView": 9, "componentType": 5123, "count": 576, "type": "SCALAR" }
  ],
  "meshes": [
    {
      "primitives": [
        {
          "attributes": { "POSITION": 0, "NORMAL": 1, "TANGENT": 2, "TEXCOORD_0": 3 },
          "indices": 4
        }
      ]
    },
    {
      "primitives": [
        {
          "attributes": { "POSITION": 5, "NORMAL": 6, "TANGENT": 7, "TEXCOORD_0": 8 },
          "indices": 9
        }
      ]
    }
  ],
  "nodes": [ { "mesh": 0 }, { "mesh": 1 } ],
  "scenes": [ { "nodes": [0, 1] } ],
  "scene": 0
}
