{
  "asset": { "version": "2.0" },
  "buffers": [ { "uri": "distant_ground.bin", "byteLength": 108 } ],
  "bufferViews": [
    { "buffer": 0, "byteOffset": 0, "byteLength": 48, "target": 34962 },
    { "buffer": 0, "byteOffset": 48, "byteLength": 48, "target": 34962 },
    { "buffer": 0, "byteOffset": 96, "byteLength": 12, "target": 34963 }
  ],
  "accessors": [
    { "bufferView": 0, "componentType": 5126, "count": 4, "type": "VEC3", "min": [-12000, -5, -12000], "max": [12000, -5, 12000] },
    { "bufferView": 1, "componentType": 5126, "count": 4, "type": "VEC3" },
    { "bufferView": 2, "componentType": 5123, "count": 6, "type": "SCALAR" }
  ],
  "materials": [
    { "pbrMetallicRoughness": { "baseColorFactor": [0.155, 0.175, 0.115, 1.0], "metallicFactor": 0.0, "roughnessFactor": 0.95 } }
  ],
  "meshes": [ { "name": "遠景地面", "primitives": [
    { "attributes": { "POSITION": 0, "NORMAL": 1 }, "indices": 2, "material": 0 }
  ] } ],
  "nodes": [ { "mesh": 0 } ],
  "scenes": [ { "nodes": [0] } ],
  "scene": 0
}
