{
  "asset": { "version": "2.0" },
  "buffers": [ { "uri": "material_sample_bodies.bin", "byteLength": 90696 } ],
  "bufferViews": [
    { "buffer": 0, "byteOffset": 0, "byteLength": 31488, "target": 34962 },
    { "buffer": 0, "byteOffset": 31488, "byteLength": 31488, "target": 34962 },
    { "buffer": 0, "byteOffset": 62976, "byteLength": 27720, "target": 34963 }
  ],
  "accessors": [
    { "bufferView": 0, "componentType": 5126, "count": 2624, "type": "VEC3", "min": [-5.9, -2, -1.7], "max": [5.9, 1, 1.7] },
    { "bufferView": 1, "componentType": 5126, "count": 2624, "type": "VEC3" },
    { "bufferView": 2, "byteOffset": 0, "componentType": 5123, "count": 1728, "type": "SCALAR" },
    { "bufferView": 2, "byteOffset": 3456, "componentType": 5123, "count": 1728, "type": "SCALAR" },
    { "bufferView": 2, "byteOffset": 6912, "componentType": 5123, "count": 1728, "type": "SCALAR" },
    { "bufferView": 2, "byteOffset": 10368, "componentType": 5123, "count": 1728, "type": "SCALAR" },
    { "bufferView": 2, "byteOffset": 13824, "componentType": 5123, "count": 1728, "type": "SCALAR" },
    { "bufferView": 2, "byteOffset": 17280, "componentType": 5123, "count": 1728, "type": "SCALAR" },
    { "bufferView": 2, "byteOffset": 20736, "componentType": 5123, "count": 1728, "type": "SCALAR" },
    { "bufferView": 2, "byteOffset": 24192, "componentType": 5123, "count": 1728, "type": "SCALAR" },
    { "bufferView": 2, "byteOffset": 27648, "componentType": 5123, "count": 36, "type": "SCALAR" }
  ],
  "materials": [
    { "pbrMetallicRoughness": { "baseColorFactor": [0.95, 0.93, 0.88, 1.0], "metallicFactor": 1, "roughnessFactor": 0 } },
    { "pbrMetallicRoughness": { "baseColorFactor": [0.95, 0.93, 0.88, 1.0], "metallicFactor": 1, "roughnessFactor": 0.25 } },
    { "pbrMetallicRoughness": { "baseColorFactor": [0.95, 0.93, 0.88, 1.0], "metallicFactor": 1, "roughnessFactor": 0.5 } },
    { "pbrMetallicRoughness": { "baseColorFactor": [0.95, 0.93, 0.88, 1.0], "metallicFactor": 1, "roughnessFactor": 0.75 } },
    { "pbrMetallicRoughness": { "baseColorFactor": [0.95, 0.93, 0.88, 1.0], "metallicFactor": 1, "roughnessFactor": 1 } },
    { "pbrMetallicRoughness": { "baseColorFactor": [0.22, 0.21, 0.2, 1.0], "metallicFactor": 0, "roughnessFactor": 0.1 } },
    { "pbrMetallicRoughness": { "baseColorFactor": [0.22, 0.21, 0.2, 1.0], "metallicFactor": 0, "roughnessFactor": 0.45 } },
    { "pbrMetallicRoughness": { "baseColorFactor": [0.22, 0.21, 0.2, 1.0], "metallicFactor": 0, "roughnessFactor": 0.85 } },
    { "pbrMetallicRoughness": { "baseColorFactor": [0.19, 0.18, 0.17, 1.0], "metallicFactor": 0, "roughnessFactor": 0.85 } }
  ],
  "meshes": [ { "name": "材質見本の立体", "primitives": [
    { "attributes": { "POSITION": 0, "NORMAL": 1 }, "indices": 2, "material": 0 },
    { "attributes": { "POSITION": 0, "NORMAL": 1 }, "indices": 3, "material": 1 },
    { "attributes": { "POSITION": 0, "NORMAL": 1 }, "indices": 4, "material": 2 },
    { "attributes": { "POSITION": 0, "NORMAL": 1 }, "indices": 5, "material": 3 },
    { "attributes": { "POSITION": 0, "NORMAL": 1 }, "indices": 6, "material": 4 },
    { "attributes": { "POSITION": 0, "NORMAL": 1 }, "indices": 7, "material": 5 },
    { "attributes": { "POSITION": 0, "NORMAL": 1 }, "indices": 8, "material": 6 },
    { "attributes": { "POSITION": 0, "NORMAL": 1 }, "indices": 9, "material": 7 },
    { "attributes": { "POSITION": 0, "NORMAL": 1 }, "indices": 10, "material": 8 }
  ] } ],
  "nodes": [ { "mesh": 0 } ],
  "scenes": [ { "nodes": [0] } ],
  "scene": 0
}
