{
  "asset": { "version": "2.0" },
  "buffers": [ { "uri": "wide_wall.bin", "byteLength": 648 } ],
  "bufferViews": [
    { "buffer": 0, "byteOffset": 0, "byteLength": 288, "target": 34962 },
    { "buffer": 0, "byteOffset": 288, "byteLength": 288, "target": 34962 },
    { "buffer": 0, "byteOffset": 576, "byteLength": 72, "target": 34963 }
  ],
  "accessors": [
    { "bufferView": 0, "componentType": 5126, "count": 24, "type": "VEC3", "min": [-1.5, 0.0, -0.35], "max": [1.5, 1.2, 0.35] },
    { "bufferView": 1, "componentType": 5126, "count": 24, "type": "VEC3" },
    { "bufferView": 2, "componentType": 5123, "count": 36, "type": "SCALAR" }
  ],
  "materials": [
    { "pbrMetallicRoughness": { "baseColorFactor": [0.62, 0.6, 0.56, 1.0], "metallicFactor": 0.0, "roughnessFactor": 0.85 } }
  ],
  "meshes": [ { "name": "夜の多光源の検収世界の遮蔽物", "primitives": [
    { "attributes": { "POSITION": 0, "NORMAL": 1 }, "indices": 2, "material": 0 }
  ] } ],
  "nodes": [ { "mesh": 0 } ],
  "scenes": [ { "nodes": [0] } ],
  "scene": 0
}
